<svg viewBox="0 0 540 85" xmlns="http://www.w3.org/2000/svg">
  <g fill="none">
    <!-- UCL Typography (Left) -->
    <path fill="#FFFFFF" d="M12.5 14h25v34.5c0 8.5 6 13.5 15.5 13.5s15.5-5 15.5-13.5V14h25v35c0 21.5-16 32-40.5 32S12.5 70.5 12.5 49V14z"/>
    <path fill="#FFFFFF" d="M148.5 47c0-21.5-16-33-40.5-33-24.5 0-40.5 10.5-40.5 33s16 33 40.5 33c24.5 0 40.5-10.5 40.5-33zm-56 0c0-9.5 5.5-14.5 15.5-14.5s15.5 5 15.5 14.5-5.5 14.5-15.5 14.5-15.5-5-15.5-14.5z"/>
    <path fill="#FFFFFF" d="M157 14h25v45.5h33.5V80H157V14z"/>

    <!-- Middle Purple Portico Icon Block -->
    <g transform="translate(230, 12)">
      <!-- Top Purple Square with Dome -->
      <rect x="0" y="0" width="58" height="30" fill="#9b51e0" rx="2"/>
      <path fill="#FFFFFF" d="M29 5L15 25h28L29 5z"/>
      <path fill="#FFFFFF" d="M29 2c-2.5 0-4.5 2-4.5 4.5h9C33.5 4 31.5 2 29 2z"/>
      <rect x="27.5" y="0" width="3" height="3" fill="#FFFFFF"/>
      
      <!-- Bottom Vertical Bars -->
      <g fill="#9b51e0">
        <rect x="2" y="34" width="6" height="24" rx="1"/>
        <rect x="11" y="34" width="6" height="24" rx="1"/>
        <rect x="20" y="34" width="6" height="24" rx="1"/>
        <rect x="29" y="34" width="6" height="24" rx="1"/>
        <rect x="38" y="34" width="6" height="24" rx="1"/>
        <rect x="47" y="34" width="6" height="24" rx="1"/>
      </g>
    </g>

    <!-- Right Side Text: Centre for Longitudinal Studies -->
    <text x="305" y="38" fill="#FFFFFF" font-family="'Helvetica Neue', Arial, sans-serif" font-weight="600" font-size="25" letter-spacing="-0.2">Centre for</text>
    <text x="305" y="67" fill="#FFFFFF" font-family="'Helvetica Neue', Arial, sans-serif" font-weight="600" font-size="25" letter-spacing="-0.2">Longitudinal Studies</text>
  </g>
</svg>
